<svg width="366" height="146" viewBox="0 0 366 146" fill="none" xmlns="http://www.w3.org/2000/svg">
<g clip-path="url(#clip0_11900_256)">
<path d="M257 22.8516L154.016 23.1739L154.078 42.7632L195.561 42.6295L195.804 121.427L215.43 121.364L215.188 42.5666L257.062 42.4409L257 22.8516Z" fill="white" style="fill:white;fill-opacity:1;"/>
<path d="M365.936 100.91L291.375 101.138C291.312 101.138 291.249 101.138 291.187 101.138C286.006 101.138 285.803 100.423 285.787 95.2268L285.639 48.4074C285.639 46.4107 286.092 44.8779 287.016 43.8638C287.931 42.8498 289.34 42.3309 291.187 42.3309L365.749 42.0951L365.686 22.5137L291.124 22.7495C282.414 22.7731 276.146 24.9034 271.952 29.2504C267.843 33.5189 265.856 39.8076 265.879 48.4703L266.028 95.2896C266.059 104.133 268.031 110.477 272.061 114.698C276.193 119.022 282.469 121.128 291.249 121.128H291.422L365.983 120.892L365.921 100.902L365.936 100.91Z" fill="white" style="fill:white;fill-opacity:1;"/>
<path d="M133.426 69.3569C133.027 69.2547 133.058 68.728 133.465 68.6337C144.319 66.7707 146.627 54.0203 146.682 48.2897C146.862 26.0435 123.378 23.1664 115.959 22.8126C114.715 22.7498 113.799 21.6964 113.807 20.4622L113.854 2.54731C113.878 1.24241 112.884 0.259797 111.585 0.236215L106.686 0.19691C105.387 0.173328 104.276 1.15594 104.26 2.46084V20.3522C104.252 21.6571 103.102 22.5847 101.811 22.5925H90.2288C88.9298 22.5768 88.0299 21.6335 88.022 20.3443L88.0612 2.40582C88.0768 1.10091 87.036 0.0554145 85.737 0.0318319L80.846 0.000388396C79.547 -0.0231942 78.5062 1.03016 78.4827 2.33507L78.3575 20.1321C78.334 21.437 77.2541 22.6004 75.9707 22.6083L70.1798 22.5611H53.9497C52.6506 22.5375 51.5003 23.3315 51.4846 24.6364L51.5472 30.4613C51.5316 31.7662 52.5724 32.7409 53.8714 32.7645L66.8383 32.8667C68.1374 32.8903 69.1547 33.9436 69.1625 35.2407L69.0608 108.347C69.0373 109.652 67.527 110.666 66.2358 110.681L54.9905 110.595C53.8792 110.579 52.9089 111.365 52.6819 112.482L51.4142 118.873C51.1247 120.311 52.4863 121.923 53.934 121.93L75.2038 121.962C76.5029 121.985 77.3871 122.929 77.395 124.218L77.3715 143.398C77.348 144.703 78.3966 145.749 79.6957 145.772L84.5945 145.812C85.8935 145.835 87.216 144.782 87.2317 143.477L87.1847 124.297C87.2082 122.992 88.1394 121.93 89.4306 121.923L100.167 121.954C101.466 121.978 102.523 123.078 102.531 124.367V143.587C102.507 144.892 103.446 145.953 104.737 145.969L109.636 146.008C110.935 146.032 111.976 144.837 111.999 143.532L112.015 124.682C112.023 123.353 113.228 122.198 114.535 122.245C123.902 122.544 148.842 122.803 153.467 98.4107C157.552 76.8955 140.461 70.874 133.441 69.3569H133.426ZM88.1472 36.4277C88.6246 35.2171 89.5558 34.2031 90.761 34.1009C127.979 31.0508 125.334 50.5379 125.334 50.5379C125.178 69.9071 98.1013 67.6904 90.3932 66.6527C89.2428 66.4955 88.3664 65.4893 87.9281 64.3102L88.1551 36.4277H88.1472ZM131.039 93.9536C130.882 113.661 98.43 111.853 89.7671 111.035C88.5698 110.925 87.9751 110.226 87.9986 109.015L87.8968 78.5855C87.9125 77.375 88.8437 76.3609 90.041 76.2587C134.107 72.4619 131.031 93.9536 131.031 93.9536H131.039Z" fill="white" style="fill:white;fill-opacity:1;"/>
<path d="M58.4254 83.8988V81.0453C58.4254 71.5808 52.6423 65.7009 43.3221 65.7009H15.0328C12.38 65.7009 11.2531 64.6318 11.2531 62.1321V59.5065C11.2531 57.5492 13.3347 55.867 15.0328 55.867H57.6194V44.1621H15.0328C6.04131 44.1621 0 50.3329 0 59.5065V62.1321C0 71.9346 5.47787 77.5551 15.0328 77.5551H43.33C46.0689 77.5551 47.1801 78.5692 47.1801 81.0453V83.8988C47.1801 85.8562 45.0594 87.5384 43.33 87.5384H0.680821V99.3219H43.33C52.3606 99.3219 58.4332 93.1275 58.4332 83.8988H58.4254Z" fill="white" style="fill:white;fill-opacity:1;"/>
</g>
<defs>
<clipPath id="clip0_11900_256">
<rect width="366" height="146" fill="white" style="fill:white;fill-opacity:1;"/>
</clipPath>
</defs>
</svg>
