<svg width="236" height="225" viewBox="0 0 236 225" fill="none" xmlns="http://www.w3.org/2000/svg">
<path d="M207.36 120.873C206.807 120.578 207.046 119.818 207.682 119.828C224.423 121.06 232.497 103.23 234.671 94.8581C243.065 62.3452 209.368 49.5633 198.52 46.3385C196.702 45.7924 195.732 43.9157 196.195 42.1112L202.809 15.8928C203.321 13.9904 202.209 12.1888 200.296 11.6803L193.062 9.83535C191.148 9.32685 189.145 10.3604 188.645 12.2656L182.109 38.4666C181.62 40.3748 179.579 41.3134 177.666 40.8538L160.529 36.6281C158.613 36.1311 157.626 34.4213 158.085 32.5305L164.697 6.27471C165.197 4.36945 164.039 2.45862 162.125 1.95012L154.9 0.119543C152.986 -0.388963 151.062 0.773881 150.55 2.67629L143.863 28.6935C143.352 30.5959 141.329 31.9056 139.427 31.4489L130.876 29.2669L106.861 23.3451C104.948 22.8366 102.955 23.5796 102.455 25.4849L100.42 34.038C99.9202 35.9433 101.104 37.7505 103.018 38.259L122.166 43.1398C124.08 43.6483 125.2 45.5621 124.738 47.4644L97.8792 154.488C97.3677 156.39 94.7625 157.324 92.8462 156.876L76.2389 152.646C74.6005 152.218 72.8775 153.015 72.1339 154.567L67.9233 163.463C66.9693 165.464 68.3953 168.321 70.5345 168.861L101.995 176.668C103.908 177.176 104.872 178.88 104.412 180.771L97.3703 208.851C96.8588 210.754 98.0284 212.667 99.9419 213.176L107.176 215.021C109.089 215.529 111.431 214.469 111.931 212.564L118.869 184.458C119.38 182.556 121.146 181.341 123.059 181.801L138.934 185.764C140.848 186.273 142.009 188.27 141.549 190.161L134.528 218.307C134.016 220.21 135.018 222.106 136.923 222.6L144.157 224.445C146.07 224.954 148.047 223.584 148.558 221.681L155.468 194.082C155.965 192.139 158.17 190.887 160.087 191.432C173.838 195.288 210.645 204.767 226.399 170.733C240.304 140.716 217.215 125.662 207.383 120.879L207.36 120.873ZM152.395 56.1295C153.543 54.5308 155.292 53.3856 157.112 53.6756C213.296 62.7885 202.263 90.3614 202.263 90.3614C194.955 118.67 155.702 105.544 144.676 101.212C143.031 100.562 142.102 98.7688 141.884 96.8821L152.406 56.1323L152.395 56.1295ZM194.842 156.023C187.411 184.826 140.054 170.338 127.535 165.98C125.803 165.382 125.179 164.14 125.656 162.376L136.622 117.776C137.088 116.009 138.836 114.864 140.645 115.151C207.233 125.669 194.831 156.02 194.831 156.02L194.842 156.023Z" fill="white" style="fill:white;fill-opacity:1;"/>
<path d="M91.0753 114.805L92.1178 110.627C95.5756 96.7662 89.1669 86.0453 75.3764 82.6448L33.5187 72.3231C29.5934 71.3551 28.3167 69.3784 29.2299 65.7176L30.1891 61.8726C30.9042 59.0062 34.5988 57.3021 37.1114 57.9217L100.124 73.4599L104.4 56.3188L41.3876 40.7805C28.0835 37.4999 16.8901 44.3324 13.5387 57.7668L12.5794 61.6117C8.99823 75.967 15.0501 86.1967 29.1879 89.683L71.0572 100.008C75.1099 101.007 76.3836 102.897 75.479 106.524L74.4365 110.702C73.7214 113.569 69.9689 115.259 67.41 114.628L4.30493 99.0665L0 116.323L63.105 131.884C76.4671 135.179 87.7153 128.323 91.0869 114.808L91.0753 114.805Z" fill="white" style="fill:white;fill-opacity:1;"/>
</svg>
