<svg width="226" height="226" viewBox="0 0 226 226" fill="none" xmlns="http://www.w3.org/2000/svg">
<rect y="0.230957" width="226" height="225" rx="22.2857" fill="#FC6432" style="fill:#FC6432;fill:color(display-p3 0.9882 0.3922 0.1961);fill-opacity:1;"/>
<path fill-rule="evenodd" clip-rule="evenodd" d="M132.229 94.0365C131.815 93.3299 131.874 92.4467 132.347 91.7402L152.077 62.5945C152.609 61.7701 152.668 60.7692 152.196 59.9449C151.723 59.0617 150.837 58.5906 149.892 58.5906H142.212C141.385 58.5906 140.558 59.0028 140.026 59.7682L116.988 93.9187C116.397 94.8019 115.452 95.273 114.389 95.273H111.494C110.431 95.273 109.486 94.743 108.895 93.9187L85.9745 59.7093C85.5019 58.9439 84.6158 58.5317 83.7888 58.5317H76.1093C75.1641 58.5317 74.2189 59.0617 73.8054 59.9449C73.3328 60.8281 73.451 61.829 73.9235 62.5945L93.654 91.799C94.1266 92.4467 94.1856 93.3299 93.7721 94.0365C93.3586 94.8019 92.6497 95.2141 91.8227 95.2141H61.6363C60.1595 95.2141 59.0371 96.3917 59.0371 97.8048V104.164C59.0371 105.636 60.2186 106.755 61.6363 106.755H164.365C165.841 106.755 166.964 105.577 166.964 104.164V97.8048C166.964 96.4506 165.96 95.3907 164.66 95.2141C164.542 95.2141 164.424 95.2141 164.306 95.2141H134.178C133.351 95.2141 132.583 94.8019 132.229 94.0365ZM108.954 131.543L85.9154 165.694C85.4428 166.459 84.5567 166.871 83.7297 166.871H76.0502C75.105 166.871 74.2189 166.341 73.7463 165.517C73.2737 164.693 73.3328 163.633 73.8645 162.867L93.5358 133.722C94.0084 133.015 94.0675 132.191 93.654 131.425C93.2405 130.719 92.5316 130.248 91.7046 130.248H61.6363C60.2186 130.248 59.0371 129.129 59.0371 127.657V121.298C59.0371 119.885 60.1595 118.707 61.6363 118.707H164.128C164.128 118.707 164.306 118.707 164.365 118.707C165.782 118.707 166.964 119.826 166.964 121.298V127.657C166.964 129.07 165.841 130.248 164.365 130.248H134.237C133.351 130.248 132.642 130.66 132.288 131.425C131.874 132.191 131.933 133.015 132.406 133.663L152.136 162.867C152.609 163.633 152.727 164.634 152.255 165.517C151.782 166.4 150.896 166.93 149.951 166.93H142.271C141.385 166.93 140.617 166.518 140.145 165.811L117.106 131.661C116.515 130.778 115.57 130.307 114.507 130.307H111.612C110.549 130.307 109.604 130.837 109.013 131.661L108.954 131.543Z" fill="white" style="fill:white;fill-opacity:1;"/>
</svg>
