<svg width="399" height="214" viewBox="0 0 399 214" fill="none" xmlns="http://www.w3.org/2000/svg">
<circle cx="291.168" cy="106.879" r="106.865" fill="#141414" style="fill:#141414;fill:color(display-p3 0.0784 0.0784 0.0784);fill-opacity:1;"/>
<path fill-rule="evenodd" clip-rule="evenodd" d="M307.234 91.1865C306.889 90.5934 306.938 89.8521 307.333 89.259L323.822 64.7938C324.266 64.1019 324.315 63.2617 323.92 62.5697C323.525 61.8284 322.785 61.433 321.995 61.433H315.577C314.886 61.433 314.195 61.7789 313.751 62.4215L294.498 91.0877C294.004 91.8291 293.214 92.2245 292.325 92.2245H289.906C289.018 92.2245 288.228 91.7796 287.734 91.0877L268.58 62.372C268.185 61.7295 267.444 61.3835 266.753 61.3835H260.335C259.546 61.3835 258.756 61.8284 258.41 62.5697C258.015 63.3111 258.114 64.1513 258.509 64.7938L274.997 89.3084C275.392 89.8521 275.442 90.5934 275.096 91.1865C274.751 91.8291 274.158 92.175 273.467 92.175H248.241C247.006 92.175 246.068 93.1635 246.068 94.3497V99.6876C246.068 100.923 247.056 101.862 248.241 101.862H334.09C335.324 101.862 336.262 100.874 336.262 99.6876V94.3497C336.262 93.2129 335.423 92.3233 334.337 92.175C334.238 92.175 334.139 92.175 334.041 92.175H308.863C308.172 92.175 307.53 91.8291 307.234 91.1865ZM287.784 122.67L268.53 151.336C268.135 151.979 267.395 152.325 266.704 152.325H260.286C259.496 152.325 258.756 151.88 258.361 151.188C257.966 150.496 258.015 149.606 258.46 148.964L274.899 124.499C275.294 123.906 275.343 123.214 274.997 122.571C274.652 121.978 274.06 121.583 273.368 121.583H248.241C247.056 121.583 246.068 120.644 246.068 119.408V114.07C246.068 112.884 247.006 111.895 248.241 111.895H333.892C333.892 111.895 334.041 111.895 334.09 111.895C335.275 111.895 336.262 112.834 336.262 114.07V119.408C336.262 120.594 335.324 121.583 334.09 121.583H308.913C308.172 121.583 307.58 121.929 307.284 122.571C306.938 123.214 306.987 123.906 307.382 124.449L323.871 148.964C324.266 149.606 324.365 150.447 323.97 151.188C323.575 151.929 322.834 152.374 322.044 152.374H315.627C314.886 152.374 314.244 152.028 313.849 151.435L294.596 122.769C294.103 122.027 293.313 121.632 292.424 121.632H290.005C289.116 121.632 288.327 122.077 287.833 122.769L287.784 122.67Z" fill="white" style="fill:white;fill-opacity:1;"/>
<g clip-path="url(#clip0_290_685)">
<path d="M210.995 132.73C196.722 189.98 138.737 224.821 81.4807 210.544C24.2477 196.271 -10.5937 138.283 3.68617 81.0371C17.9527 23.7807 75.9371 -11.064 133.177 3.20916C190.43 17.4823 225.268 75.4768 210.995 132.73Z" fill="#F7931A" style="fill:#F7931A;fill:color(display-p3 0.9686 0.5765 0.1020);fill-opacity:1;"/>
<path d="M150.165 92.7735C152.112 79.7546 142.2 72.756 128.646 68.0872L133.043 50.4515L122.308 47.7761L118.027 64.9471C115.205 64.2439 112.307 63.5804 109.426 62.923L113.737 45.6389L103.009 42.9636L98.6089 60.5932C96.273 60.0612 93.9798 59.5353 91.754 58.9819L91.7662 58.9269L76.9617 55.2303L74.106 66.696C74.106 66.696 82.0708 68.5213 81.9027 68.6345C86.2504 69.7199 87.0362 72.597 86.9048 74.8779L81.8966 94.9688C82.1962 95.0452 82.5845 95.1553 83.0125 95.3265C82.6548 95.2378 82.2726 95.14 81.8782 95.0452L74.8582 123.19C74.3262 124.51 72.9778 126.492 69.9386 125.74C70.0457 125.895 62.1359 123.792 62.1359 123.792L56.8066 136.08L70.7764 139.563C73.3753 140.214 75.9222 140.896 78.4293 141.538L73.9868 159.375L84.7095 162.051L89.1092 144.403C92.0383 145.198 94.8818 145.931 97.6641 146.622L93.2797 164.188L104.015 166.863L108.457 149.059C126.762 152.523 140.527 151.126 146.321 134.57C150.99 121.239 146.089 113.549 136.458 108.535C143.472 106.918 148.755 102.304 150.165 92.7735ZM125.637 127.167C122.32 140.498 99.8747 133.292 92.5978 131.485L98.4927 107.853C105.77 109.669 129.104 113.265 125.637 127.167ZM128.958 92.5809C125.931 104.707 107.249 98.5461 101.189 97.0357L106.534 75.6025C112.594 77.1129 132.11 79.932 128.958 92.5809Z" fill="white" style="fill:white;fill-opacity:1;"/>
</g>
<defs>
<clipPath id="clip0_290_685">
<rect width="213.73" height="213.73" fill="white" style="fill:white;fill-opacity:1;" transform="translate(0.472656 0.0136719)"/>
</clipPath>
</defs>
</svg>
